<?xml version="1.0" encoding="iso-8859-1"?>
<!-- Generator: Adobe Illustrator 19.0.0, SVG Export Plug-In . SVG Version: 6.00 Build 0)  -->
<svg version="1.1" id="Capa_1" xmlns="http://www.w3.org/2000/svg" xmlns:xlink="http://www.w3.org/1999/xlink" x="0px" y="0px"
	 viewBox="0 0 496 496" style="enable-background:new 0 0 496 496;" xml:space="preserve">
<g>
	<g>
		<g>
			<path fill="#ea41ac" d="M16,64h256v16h16V40c0-22.056-17.944-40-40-40H40C17.944,0,0,17.944,0,40v360h16V64z M16,40c0-13.232,10.768-24,24-24
				h208c13.232,0,24,10.768,24,24v8H16V40z"/>
			<path fill="#ea41ac" d="M0,456c0,22.056,17.944,40,40,40h208c22.056,0,40-17.944,40-40v-40H0V456z M16,432h256v24c0,13.232-10.768,24-24,24H40
				c-13.232,0-24-10.768-24-24V432z"/>
			<rect fill="#ea41ac" x="104" y="448" width="80" height="16"/>
			<path fill="#ea41ac" d="M360,248c-26.472,0-48,21.528-48,48s21.528,48,48,48s48-21.528,48-48S386.472,248,360,248z M360,328
				c-17.648,0-32-14.352-32-32s14.352-32,32-32s32,14.352,32,32S377.648,328,360,328z"/>
			<path fill="#ea41ac" d="M136,144c-22.056,0-40,17.944-40,40c0,22.056,17.944,40,40,40c22.056,0,40-17.944,40-40C176,161.944,158.056,144,136,144
				z M136,208c-13.232,0-24-10.768-24-24s10.768-24,24-24s24,10.768,24,24S149.232,208,136,208z"/>
			<path fill="#ea41ac" d="M164.4,258.8c1.472-0.56,2.936-1.176,4.392-1.84l24.8,16.536l31.904-31.904l-16.536-24.8
				c0.664-1.464,1.28-2.928,1.84-4.392l29.2-5.84v-45.12l-29.2-5.84c-1.128-2.92-2.456-5.84-3.968-8.728l-14.16,7.448
				c1.848,3.528,3.352,7.104,4.44,10.608l1.416,4.536L224,174.56v18.88l-25.48,5.096l-1.416,4.536
				c-1.088,3.504-2.584,7.072-4.44,10.608l-2.208,4.208l14.44,21.664l-13.344,13.352l-21.664-14.448l-4.2,2.208
				c-3.512,1.848-7.088,3.344-10.616,4.448l-4.528,1.416L145.448,272H126.56l-5.096-25.472l-4.528-1.416
				c-3.528-1.104-7.104-2.6-10.616-4.448l-4.2-2.208l-21.664,14.448l-17.984-17.992L51.16,246.224l27.264,27.264l24.8-16.536
				c1.456,0.664,2.92,1.28,4.392,1.84l5.84,29.2h45.112L164.4,258.8z"/>
			<path fill="#ea41ac" d="M32,161.44v45.12l29.2,5.84c1.128,2.92,2.456,5.84,3.968,8.728l14.16-7.448c-1.848-3.528-3.352-7.104-4.44-10.608
				l-1.416-4.536L48,193.44v-18.88l25.48-5.096l1.416-4.536c1.088-3.504,2.584-7.072,4.44-10.608l2.208-4.208l-14.44-21.664
				l13.352-13.352l21.672,14.448l4.2-2.216c3.504-1.84,7.072-3.336,10.6-4.44l4.528-1.416L126.552,96h18.888l5.096,25.472
				l4.528,1.416c3.528,1.104,7.104,2.6,10.6,4.44l4.2,2.216l21.672-14.448l17.992,17.992l11.312-11.312l-27.256-27.264
				l-24.808,16.528c-1.464-0.664-2.92-1.272-4.392-1.84L158.552,80H113.44l-5.84,29.2c-1.472,0.568-2.928,1.176-4.392,1.84
				L78.4,94.512l-31.896,31.896l16.536,24.8c-0.664,1.464-1.28,2.928-1.84,4.392L32,161.44z"/>
			<rect fill="#ea41ac" x="128" y="304" width="16" height="16"/>
			<rect fill="#ea41ac" x="128" y="336" width="16" height="16"/>
			<rect fill="#ea41ac" x="128" y="368" width="16" height="16"/>
			<rect fill="#ea41ac" x="352" y="128" width="16" height="16"/>
			<rect fill="#ea41ac" x="352" y="96" width="16" height="16"/>
			<rect fill="#ea41ac" x="352" y="64" width="16" height="16"/>
			<path fill="#ea41ac" d="M496,326.56v-61.12l-39.456-7.88c-0.92-2.312-1.936-4.6-3.032-6.856l-14.392,7c1.504,3.104,2.832,6.272,3.92,9.44
				l1.504,4.328L480,278.56v34.872l-35.456,7.096l-1.504,4.328c-1.096,3.168-2.416,6.344-3.92,9.44l-2.008,4.12l20.072,30.104
				l-24.664,24.664l-30.112-20.064l-4.12,2.008c-3.096,1.504-6.272,2.832-9.44,3.92l-4.328,1.504L377.44,416h-34.88l-7.096-35.456
				l-4.328-1.504c-3.168-1.096-6.344-2.416-9.44-3.92l-4.12-2.008l-30.112,20.064L258.16,363.88l-11.312,11.312l38.584,38.576
				l33.48-22.32c0.872,0.376,1.752,0.744,2.632,1.096L329.44,432h61.128l7.88-39.456c0.88-0.352,1.76-0.72,2.632-1.096l33.48,22.32
				l43.224-43.208l-22.328-33.488c0.376-0.872,0.744-1.752,1.096-2.632L496,326.56z"/>
			<path fill="#ea41ac" d="M242.216,221.44l22.328,33.48c-0.376,0.872-0.744,1.752-1.096,2.632L224,265.44v61.128l39.456,7.88
				c0.92,2.312,1.936,4.6,3.032,6.848l14.392-7c-1.504-3.096-2.832-6.272-3.92-9.44l-1.504-4.328L240,313.44v-34.88l35.456-7.096
				l1.504-4.328c1.096-3.168,2.416-6.336,3.92-9.44l2.008-4.128l-20.072-30.096l24.664-24.664l30.104,20.064l4.128-2
				c3.088-1.504,6.272-2.832,9.456-3.936l4.312-1.504L342.552,176h34.888l7.088,35.44l4.312,1.504
				c3.176,1.104,6.368,2.432,9.456,3.936l4.128,2l30.104-20.064l29.304,29.304l11.312-11.312l-38.584-38.576l-33.488,22.32
				c-0.864-0.376-1.744-0.736-2.624-1.088L390.552,160H329.44l-7.888,39.456c-0.88,0.352-1.76,0.712-2.624,1.088l-33.488-22.32
				L242.216,221.44z"/>
		</g>
	</g>
</g>
<g>
</g>
<g>
</g>
<g>
</g>
<g>
</g>
<g>
</g>
<g>
</g>
<g>
</g>
<g>
</g>
<g>
</g>
<g>
</g>
<g>
</g>
<g>
</g>
<g>
</g>
<g>
</g>
<g>
</g>
</svg>
