<svg viewBox="0 0 496 496" xmlns="http://www.w3.org/2000/svg"><path fill="#36bdd0" d="m136 200c0 61.761719 50.238281 112 112 112s112-50.238281 112-112-50.238281-112-112-112-112 50.238281-112 112zm16 0c0-5.464844.566406-10.785156 1.449219-16h13.832031c9.222656 0 16.71875 7.503906 16.71875 16.71875 0 12.480469 6.929688 23.695312 18.089844 29.273438l12.390625 6.191406c4.992187 2.496094 10.574219 3.816406 16.152343 3.816406 7.664063 0 14.550782 4.257812 17.976563 11.113281l4.132813 8.261719c3.898437 7.792969 11.722656 12.625 20.425781 12.625 3.769531 0 6.832031 3.070312 6.832031 6.832031v11.566407c-10.023438 3.5625-20.769531 5.601562-32 5.601562-52.9375 0-96-43.0625-96-96zm144 83.007812v-4.175781c0-12.59375-10.238281-22.832031-22.832031-22.832031-2.609375 0-4.953125-1.449219-6.113281-3.785156l-4.132813-8.261719c-6.152344-12.304687-18.53125-19.953125-32.289063-19.953125-3.105468 0-6.207031-.734375-8.992187-2.128906l-12.402344-6.191406c-5.695312-2.847657-9.238281-8.582032-9.238281-14.960938 0-18.039062-14.679688-32.71875-32.71875-32.71875h-9.679688c12.367188-34.816406 44.199219-60.425781 82.398438-63.59375v9.371094c0 12.191406-4.753906 23.664062-13.367188 32.285156-6.855468 6.847656-10.632812 15.96875-10.632812 25.65625 0 20.007812 16.28125 36.28125 36.289062 36.28125h2.605469c3.738281 0 7.25 1.457031 9.898438 4.105469l11.117187 11.109375c5.65625 5.65625 13.195313 8.785156 21.203125 8.785156 5.757813 0 10.855469 3.457031 12.910157 8.574219l8.785156 24.027343c-6.609375 7.238282-14.28125 13.460938-22.808594 18.40625zm48-83.007812c0 18.03125-5.089844 34.847656-13.769531 49.28125l-5.269531-14.417969c-4.585938-11.464843-15.511719-18.863281-27.847657-18.863281-3.738281 0-7.25-1.457031-9.898437-4.105469l-11.117188-11.109375c-5.664062-5.65625-13.203125-8.785156-21.210937-8.785156h-2.605469c-11.175781 0-20.28125-9.105469-20.28125-20.28125 0-5.414062 2.113281-10.503906 5.945312-14.34375 11.640626-11.640625 18.054688-27.136719 18.054688-43.597656v-9.371094c49.191406 4.089844 88 45.355469 88 95.59375zm0 0"/><path fill="#36bdd0" d="m330.230469 0-22.964844 68.910156c-18.105469-8.214844-38.128906-12.910156-59.265625-12.910156-19.847656 0-38.777344 4.039062-56 11.335938v-67.335938h-192v112h134.273438c-18.898438 24.367188-30.273438 54.847656-30.273438 88 0 51.617188 27.382812 96.839844 68.304688 122.265625l-40.304688 53.734375h-132v16h140l46.488281-61.992188c6.894531 3.28125 14.0625 6.0625 21.511719 8.222657v21.769531h-16v16h16v16h-16v16h16v48c0 22.054688 17.945312 40 40 40s40-17.945312 40-40v-48h16v-16h-16v-16h16v-16h-16v-21.769531c59.984375-17.390625 104-72.71875 104-138.230469 0-52.488281-28.320312-98.367188-70.390625-123.535156l20.160156-60.464844h154.230469v-16zm-314.230469 16h160v59.488281c-9.921875 5.757813-19.089844 12.640625-27.328125 20.511719h-132.671875zm256 440c0 13.230469-10.769531 24-24 24s-24-10.769531-24-24v-48h48zm0-64h-48v-16h48zm0-32h-48v-18.167969c7.824219 1.320313 15.808594 2.167969 24 2.167969s16.175781-.847656 24-2.167969zm104-160c0 70.574219-57.425781 128-128 128s-128-57.425781-128-128 57.425781-128 128-128 128 57.425781 128 128zm0 0"/><path fill="#36bdd0" d="m368 32h128v16h-128zm0 0"/><path fill="#36bdd0" d="m368 64h96v16h-96zm0 0"/><path fill="#36bdd0" d="m480 64h16v16h-16zm0 0"/><path fill="#36bdd0" d="m32 344h80v16h-80zm0 0"/><path fill="#36bdd0" d="m0 344h16v16h-16zm0 0"/><path fill="#36bdd0" d="m0 312h112v16h-112zm0 0"/><path fill="#36bdd0" d="m32 32h16v16h-16zm0 0"/><path fill="#36bdd0" d="m64 32h96v16h-96zm0 0"/><path fill="#36bdd0" d="m32 64h16v16h-16zm0 0"/><path fill="#36bdd0" d="m64 64h80v16h-80zm0 0"/></svg>
